<svg width="1920" height="489" viewBox="0 0 1920 489" fill="none" xmlns="http://www.w3.org/2000/svg">
<g clip-path="url(#clip0_54_12)">
<path d="M16.3999 148.6V340.3C16.3999 352.5 22.8999 363.8 33.4999 369.9L199.5 465.7C210.1 471.8 223.1 471.8 233.7 465.7L399.7 369.9C410.3 363.8 416.8 352.5 416.8 340.3V148.6C416.8 136.4 410.3 125.1 399.7 119L233.7 23.2C223.1 17.1 210.1 17.1 199.5 23.2L33.4999 119C22.9999 125.1 16.3999 136.4 16.3999 148.6Z" fill="#213147"/>
<path d="M252.9 281.6L229.2 346.5C228.5 348.3 228.5 350.3 229.2 352.1L269.9 463.8L317 436.6L260.5 281.6C259.2 278 254.2 278 252.9 281.6Z" fill="#12AAFF"/>
<path d="M300.3 172.4C299 168.8 294 168.8 292.7 172.4L269 237.3C268.3 239.1 268.3 241.1 269 242.9L335.7 425.8L382.8 398.6L300.3 172.4Z" fill="#12AAFF"/>
<path d="M216.6 30.3C217.8 30.3 218.9 30.6 220 31.2L399.6 134.9C401.7 136.1 403 138.3 403 140.7V348.1C403 350.5 401.7 352.7 399.6 353.9L220 457.7C219 458.3 217.8 458.6 216.6 458.6C215.4 458.6 214.3 458.3 213.2 457.7L33.7 354C31.6 352.8 30.3 350.6 30.3 348.2V140.7C30.3 138.3 31.6 136.1 33.7 134.9L213.3 31.2C214.3 30.6 215.5 30.3 216.6 30.3ZM216.6 0C210.2 0 203.8 1.7 198.1 5L18.5 108.7C7.1 115.3 0 127.5 0 140.7V348.1C0 361.3 7.1 373.6 18.5 380.2L198.1 483.9C203.8 487.2 210.2 488.9 216.6 488.9C223 488.9 229.4 487.2 235.1 483.9L414.7 380.2C426.2 373.6 433.2 361.4 433.2 348.1V140.7C433.2 127.5 426.1 115.2 414.7 108.6L235.2 5C229.4 1.7 223 0 216.6 0Z" fill="#9DCCED"/>
<path d="M97.8999 426L114.4 380.8L147.6 408.4L116.6 436.8L97.8999 426Z" fill="#213147"/>
<path d="M201.5 125.9H156C152.6 125.9 149.5 128 148.4 131.2L50.7998 398.8L97.8998 426L205.4 131.3C206.3 128.7 204.4 125.9 201.5 125.9Z" fill="white"/>
<path d="M281.2 125.9H235.7C232.3 125.9 229.2 128 228.1 131.2L116.6 436.8L163.7 464L285 131.4C286 128.7 284 125.9 281.2 125.9Z" fill="white"/>
<path d="M627.1 126C631.6 126 635.5 126.9 638.6 128.8C641.7 130.7 644.8 134.3 647.8 139.7L707.2 247.5C707.8 248.7 707.9 249.7 707.6 250.5C707.3 251.3 706.4 251.7 705 251.7H682.2C680.2 251.7 678.8 250.9 678.1 249.4L665.4 226.3H581.1L568.7 249.4C567.9 251 566.5 251.7 564.6 251.7H541.3C539.7 251.7 538.8 251.3 538.5 250.5C538.2 249.7 538.3 248.7 538.9 247.5L597.8 139.7C600.8 134.3 603.7 130.7 606.6 128.8C609.5 126.9 612.8 126 616.6 126H627.1ZM592.2 205.3H654L625.5 152.7C625 151.9 624.4 151.4 623.5 151.4H622.4C621.6 151.4 620.9 151.8 620.4 152.7L592.2 205.3Z" fill="black"/>
<path d="M837.7 126C851.5 126 861.3 129.1 867.3 135.3C873.3 141.5 876.3 150.7 876.3 162.9V173.1C876.3 183.4 874.2 191.5 870 197.5C865.8 203.5 859 207.3 849.5 209L880.2 247C880.8 247.6 881 248.5 880.7 249.7C880.5 250.9 879.5 251.5 877.8 251.5H854.7C853.1 251.5 852.1 251.3 851.5 251C850.9 250.6 850.3 250 849.7 249.2L821.3 211.9H763.3V247.6C763.3 250.2 762 251.5 759.4 251.5H740C737.2 251.5 735.9 250.2 735.9 247.6V131.3C735.9 127.7 737.7 125.9 741.3 125.9L837.7 126ZM763.4 190H832.1C838.2 190 842.5 188.7 845 186.1C847.5 183.5 848.8 179.5 848.8 174.1V166.6C848.8 161.2 847.5 157.2 845 154.6C842.5 152 838.2 150.7 832.1 150.7H765.7C764.1 150.7 763.4 151.4 763.4 152.9V190Z" fill="black"/>
<path d="M1026.4 126C1038.7 126 1047.5 128.5 1052.7 133.4C1057.9 138.3 1060.5 145.7 1060.5 155.6V164.2C1060.5 174.2 1056.7 181.8 1049 187C1057.2 191.8 1061.4 199.5 1061.4 210.1V220.5C1061.4 225.3 1060.9 229.6 1059.8 233.4C1058.7 237.2 1057 240.5 1054.5 243.2C1052 245.9 1048.8 248 1044.7 249.4C1040.6 250.8 1035.6 251.6 1029.6 251.6H923C919.4 251.6 917.6 249.8 917.6 246.2V131.3C917.6 127.7 919.4 125.9 923 125.9L1026.4 126ZM945.1 178.2H1018.7C1024.7 178.2 1028.7 177.3 1030.9 175.5C1033.1 173.7 1034.1 171.1 1034.1 167.6V161.5C1034.1 157.8 1033.1 155.1 1031 153.3C1028.9 151.6 1025.5 150.7 1020.9 150.7H947.5C945.9 150.7 945.2 151.5 945.2 153V178.2H945.1ZM945.1 197.7V224.4C945.1 226 945.9 226.7 947.4 226.7H1021C1025.8 226.7 1029.2 225.8 1031.2 224.1C1033.2 222.4 1034.3 219.6 1034.3 215.8V209C1034.3 205.3 1033.2 202.5 1031 200.6C1028.8 198.7 1024.7 197.7 1018.7 197.7H945.1Z" fill="black"/>
<path d="M1128.3 126C1130.9 126 1132.2 127.3 1132.2 129.9V247.6C1132.2 250.2 1130.9 251.5 1128.3 251.5H1108.9C1106.1 251.5 1104.8 250.2 1104.8 247.6V129.9C1104.8 127.3 1106.2 126 1108.9 126H1128.3Z" fill="black"/>
<path d="M1316.3 126C1319.1 126 1320.4 127.3 1320.4 129.9V147.5C1320.4 150.3 1319 151.6 1316.3 151.6H1260V247.6C1260 250.2 1258.7 251.5 1256.1 251.5H1236.5C1233.9 251.5 1232.6 250.2 1232.6 247.6V151.6H1176.3C1173.5 151.6 1172.2 150.2 1172.2 147.5V129.9C1172.2 127.3 1173.6 126 1176.3 126H1316.3Z" fill="black"/>
<path d="M1458.2 126C1472 126 1481.8 129.1 1487.8 135.3C1493.8 141.5 1496.8 150.7 1496.8 162.9V173.1C1496.8 183.4 1494.7 191.5 1490.5 197.5C1486.3 203.5 1479.5 207.3 1470 209L1500.7 247C1501.3 247.6 1501.5 248.5 1501.2 249.7C1501 250.9 1500 251.5 1498.3 251.5H1475.2C1473.6 251.5 1472.6 251.3 1472 251C1471.4 250.6 1470.8 250 1470.2 249.2L1441.8 211.9H1383.8V247.6C1383.8 250.2 1382.5 251.5 1379.9 251.5H1360.5C1357.7 251.5 1356.4 250.2 1356.4 247.6V131.3C1356.4 127.7 1358.2 125.9 1361.8 125.9L1458.2 126ZM1384 190H1452.7C1458.8 190 1463.1 188.7 1465.6 186.1C1468.1 183.5 1469.4 179.5 1469.4 174.1V166.6C1469.4 161.2 1468.1 157.2 1465.6 154.6C1463.1 152 1458.8 150.7 1452.7 150.7H1386.3C1384.7 150.7 1384 151.4 1384 152.9V190Z" fill="black"/>
<path d="M1559.1 126C1561.7 126 1563 127.3 1563 129.9V201.5C1563 206.3 1563.4 210.3 1564.2 213.4C1565 216.6 1566.3 219.1 1568.1 220.9C1569.9 222.8 1572.3 224.1 1575.4 224.8C1578.5 225.6 1582.3 226 1587 226H1636.7C1641.4 226 1645.2 225.6 1648.3 224.8C1651.4 224 1653.8 222.7 1655.6 220.9C1657.4 219 1658.7 216.5 1659.4 213.4C1660.1 210.2 1660.5 206.3 1660.5 201.5V129.9C1660.5 127.3 1661.8 126 1664.4 126H1684C1686.6 126 1687.9 127.3 1687.9 129.9V204.2C1687.9 212.8 1687 220.1 1685.2 226.2C1683.4 232.2 1680.5 237.1 1676.5 240.9C1672.5 244.7 1667.3 247.4 1660.9 249.1C1654.5 250.8 1646.8 251.6 1637.7 251.6H1586C1576.9 251.6 1569.2 250.8 1562.9 249.1C1556.6 247.4 1551.4 244.7 1547.4 240.9C1543.4 237.1 1540.5 232.2 1538.6 226.2C1536.7 220.2 1535.8 212.8 1535.8 204.2V129.9C1535.8 127.3 1537.2 126 1539.9 126H1559.1Z" fill="black"/>
<path d="M1765 126C1767.6 126 1769.9 126.2 1771.8 126.5C1773.7 126.9 1775.4 127.5 1776.8 128.6C1778.2 129.6 1779.5 131 1780.7 132.7C1781.8 134.4 1783 136.7 1784.2 139.6L1821.5 225.7C1822 226.8 1822.8 227.3 1824 227.3H1826.2C1827.4 227.3 1828.2 226.8 1828.7 225.7L1866 139.6C1867.2 136.7 1868.4 134.4 1869.5 132.7C1870.6 131 1871.9 129.6 1873.4 128.6C1874.8 127.6 1876.5 126.9 1878.3 126.5C1880.2 126.1 1882.4 126 1885 126H1904.2C1910.4 126 1914.6 127.4 1916.8 130.2C1919 133 1920 137.8 1920 144.6V247.6C1920 250.2 1918.6 251.5 1915.9 251.5H1897.6C1895 251.5 1893.7 250.2 1893.7 247.6V154C1893.7 152.8 1893.2 152.2 1892.3 152.2H1890.7C1889.5 152.2 1888.7 152.7 1888.4 153.6L1852 234C1850.6 237.2 1849.1 240 1847.6 242.2C1846.1 244.4 1844.5 246.2 1842.8 247.7C1841.1 249.1 1839.1 250.2 1836.9 250.8C1834.7 251.4 1832.1 251.7 1829.1 251.7H1820.5C1817.5 251.7 1814.9 251.4 1812.7 250.8C1810.5 250.2 1808.5 249.2 1806.8 247.7C1805.1 246.3 1803.4 244.4 1802 242.2C1800.5 240 1799 237.3 1797.6 234L1761.4 153.6C1761 152.6 1760.3 152.2 1759.1 152.2H1757.5C1756.5 152.2 1756.1 152.8 1756.1 154V247.7C1756.1 250.3 1754.8 251.6 1752.2 251.6H1733.9C1731.1 251.6 1729.8 250.3 1729.8 247.7V144.7C1729.8 137.9 1730.9 133.1 1733 130.3C1735.2 127.5 1739.4 126.1 1745.7 126.1H1765V126Z" fill="black"/>
<path d="M614.5 288.7C616.1 288.7 616.9 289.5 616.9 291V301.1C616.9 302.7 616.1 303.4 614.5 303.4H568.5C565.7 303.4 563.5 303.6 561.7 304.1C559.9 304.6 558.5 305.3 557.4 306.4C556.3 307.5 555.6 309 555.1 310.9C554.6 312.8 554.4 315.1 554.4 317.8V319.9H614C615.6 319.9 616.3 320.7 616.3 322.2V330.6C616.3 332.2 615.5 332.9 614 332.9H554.4V360.5C554.4 362.1 553.6 362.8 552.1 362.8H540.6C539 362.8 538.2 362 538.2 360.5V316.6C538.2 311.5 538.7 307.2 539.8 303.7C540.9 300.2 542.6 297.3 545 295.1C547.4 292.9 550.4 291.2 554.2 290.2C557.9 289.2 562.5 288.7 567.9 288.7H614.5Z" fill="#12AAFF"/>
<path d="M699.7 288.7C705.1 288.7 709.7 289.2 713.4 290.2C717.2 291.2 720.3 292.9 722.6 295.1C725 297.3 726.7 300.2 727.7 303.7C728.8 307.2 729.3 311.5 729.3 316.6V334.8C729.3 339.9 728.8 344.2 727.7 347.8C726.6 351.4 724.9 354.3 722.6 356.5C720.2 358.7 717.2 360.3 713.4 361.3C709.6 362.3 705 362.8 699.7 362.8H666.9C661.5 362.8 657 362.3 653.2 361.3C649.5 360.3 646.4 358.7 644 356.5C641.6 354.3 639.9 351.4 638.8 347.8C637.7 344.2 637.2 339.9 637.2 334.8V316.6C637.2 311.5 637.7 307.2 638.8 303.7C639.9 300.2 641.6 297.3 644 295.1C646.4 292.9 649.4 291.2 653.2 290.2C656.9 289.2 661.5 288.7 666.9 288.7H699.7ZM653.5 333.7C653.5 336.5 653.7 338.8 654.2 340.6C654.7 342.5 655.4 344 656.5 345.1C657.6 346.2 659 347 660.8 347.4C662.6 347.9 664.9 348.1 667.6 348.1H699.1C701.9 348.1 704.1 347.9 705.9 347.4C707.7 346.9 709.1 346.2 710.2 345.1C711.3 344 712 342.5 712.5 340.6C713 338.7 713.2 336.4 713.2 333.7V317.8C713.2 315 713 312.7 712.5 310.9C712 309 711.3 307.5 710.2 306.4C709.1 305.3 707.7 304.5 705.9 304.1C704.1 303.6 701.8 303.4 699.1 303.4H667.6C664.8 303.4 662.6 303.6 660.8 304.1C659 304.6 657.6 305.3 656.5 306.4C655.4 307.5 654.7 309 654.2 310.9C653.7 312.8 653.5 315.1 653.5 317.8V333.7Z" fill="#12AAFF"/>
<path d="M766.8 288.7C768.4 288.7 769.1 289.5 769.1 291V333.3C769.1 336.1 769.3 338.5 769.8 340.4C770.3 342.3 771 343.8 772.1 344.9C773.2 346 774.6 346.8 776.4 347.2C778.2 347.7 780.5 347.9 783.2 347.9H812.6C815.4 347.9 817.6 347.7 819.4 347.2C821.2 346.7 822.6 346 823.7 344.9C824.8 343.8 825.5 342.3 825.9 340.4C826.3 338.5 826.5 336.2 826.5 333.3V291C826.5 289.4 827.3 288.7 828.8 288.7H840.4C842 288.7 842.7 289.5 842.7 291V334.9C842.7 340 842.2 344.3 841.1 347.9C840 351.5 838.3 354.4 836 356.6C833.7 358.8 830.6 360.4 826.8 361.4C823 362.4 818.4 362.9 813.1 362.9H782.6C777.2 362.9 772.7 362.4 768.9 361.4C765.2 360.4 762.1 358.8 759.7 356.6C757.3 354.4 755.6 351.5 754.5 347.9C753.4 344.3 752.9 340 752.9 334.9V291C752.9 289.4 753.7 288.7 755.3 288.7H766.8Z" fill="#12AAFF"/>
<path d="M886.2 288.7C887.9 288.7 889.3 288.8 890.4 288.9C891.5 289 892.5 289.3 893.4 289.8C894.2 290.3 895.1 290.9 895.8 291.7C896.6 292.5 897.5 293.6 898.5 294.9L938 346.7C938.3 347.2 938.7 347.4 939.4 347.4H940.4C941 347.4 941.2 347 941.2 346.3V291C941.2 289.4 942 288.7 943.5 288.7H954.6C956.2 288.7 956.9 289.5 956.9 291V351.9C956.9 356.2 956.1 359.1 954.6 360.7C953 362.2 950.6 363 947.4 363H938.3C936.7 363 935.3 362.9 934.2 362.8C933.1 362.7 932.1 362.4 931.3 362C930.5 361.6 929.6 361 928.8 360.1C928 359.3 927.1 358.2 926 356.8L886.4 305.1C886 304.6 885.5 304.4 885 304.4H884C883.4 304.4 883.2 304.8 883.2 305.5V360.9C883.2 362.5 882.4 363.2 880.9 363.2H869.8C868.2 363.2 867.4 362.4 867.4 360.9V300C867.4 295.7 868.2 292.8 869.7 291.2C871.3 289.7 873.7 288.9 876.9 288.9H886.2V288.7Z" fill="#12AAFF"/>
<path d="M1034.5 288.7C1040.2 288.7 1045.1 289.3 1049.2 290.4C1053.3 291.6 1056.7 293.4 1059.3 295.8C1061.9 298.2 1063.8 301.3 1065.1 305.1C1066.3 308.9 1067 313.4 1067 318.5V333C1067 338.2 1066.4 342.6 1065.1 346.4C1063.9 350.2 1061.9 353.3 1059.3 355.7C1056.7 358.1 1053.3 359.9 1049.2 361.1C1045.1 362.3 1040.2 362.9 1034.5 362.9H984.9C982.8 362.9 981.7 361.8 981.7 359.7V291.8C981.7 289.7 982.8 288.6 984.9 288.6H1034.5V288.7ZM997.9 346.8C997.9 347.7 998.4 348.2 999.3 348.2H1034.1C1037.2 348.2 1039.8 347.9 1041.9 347.4C1044 346.8 1045.7 345.9 1047 344.6C1048.3 343.3 1049.2 341.6 1049.8 339.5C1050.4 337.4 1050.6 334.8 1050.6 331.7V320C1050.6 316.9 1050.3 314.3 1049.8 312.2C1049.2 310.1 1048.3 308.4 1047 307.1C1045.7 305.8 1044 304.9 1041.9 304.3C1039.8 303.7 1037.2 303.5 1034.1 303.5H999.3C998.4 303.5 997.9 304 997.9 305V346.8Z" fill="#12AAFF"/>
<path d="M1133.6 288.7C1136.3 288.7 1138.5 289.2 1140.4 290.3C1142.2 291.4 1144 293.5 1145.8 296.7L1180.9 360.4C1181.3 361.1 1181.3 361.7 1181.2 362.1C1181 362.6 1180.5 362.8 1179.7 362.8H1166.2C1165 362.8 1164.2 362.3 1163.8 361.4L1156.3 347.7H1106.5L1099.2 361.4C1098.7 362.3 1097.9 362.8 1096.8 362.8H1083C1082.1 362.8 1081.5 362.6 1081.4 362.1C1081.2 361.6 1081.3 361.1 1081.7 360.4L1116.5 296.7C1118.3 293.5 1120 291.4 1121.7 290.3C1123.4 289.2 1125.4 288.7 1127.6 288.7H1133.6ZM1113.1 335.5H1149.6L1132.7 304.4C1132.4 303.9 1132 303.7 1131.5 303.7H1130.9C1130.4 303.7 1130 303.9 1129.7 304.4L1113.1 335.5Z" fill="#12AAFF"/>
<path d="M1267.5 288.7C1269.1 288.7 1269.9 289.5 1269.9 291V301.4C1269.9 303 1269.1 303.8 1267.5 303.8H1234.2V360.5C1234.2 362.1 1233.4 362.8 1231.9 362.8H1220.3C1218.7 362.8 1218 362 1218 360.5V303.8H1184.7C1183.1 303.8 1182.3 303 1182.3 301.4V291C1182.3 289.4 1183.1 288.7 1184.7 288.7H1267.5Z" fill="#12AAFF"/>
<path d="M1303.9 288.7C1305.5 288.7 1306.2 289.5 1306.2 291V360.6C1306.2 362.2 1305.4 362.9 1303.9 362.9H1292.4C1290.8 362.9 1290 362.1 1290 360.6V291C1290 289.4 1290.8 288.7 1292.4 288.7H1303.9Z" fill="#12AAFF"/>
<path d="M1392.5 288.7C1397.9 288.7 1402.5 289.2 1406.2 290.2C1410 291.2 1413.1 292.9 1415.4 295.1C1417.8 297.3 1419.5 300.2 1420.5 303.7C1421.6 307.2 1422.1 311.5 1422.1 316.6V334.8C1422.1 339.9 1421.6 344.2 1420.5 347.8C1419.4 351.4 1417.7 354.3 1415.4 356.5C1413 358.7 1410 360.3 1406.2 361.3C1402.4 362.3 1397.8 362.8 1392.5 362.8H1359.7C1354.3 362.8 1349.8 362.3 1346 361.3C1342.3 360.3 1339.2 358.7 1336.8 356.5C1334.4 354.3 1332.7 351.4 1331.6 347.8C1330.5 344.2 1330 339.9 1330 334.8V316.6C1330 311.5 1330.5 307.2 1331.6 303.7C1332.7 300.2 1334.4 297.3 1336.8 295.1C1339.2 292.9 1342.2 291.2 1346 290.2C1349.7 289.2 1354.3 288.7 1359.7 288.7H1392.5ZM1346.3 333.7C1346.3 336.5 1346.5 338.8 1347 340.6C1347.5 342.5 1348.2 344 1349.3 345.1C1350.4 346.2 1351.8 347 1353.6 347.4C1355.4 347.9 1357.7 348.1 1360.4 348.1H1391.9C1394.7 348.1 1396.9 347.9 1398.7 347.4C1400.5 346.9 1401.9 346.2 1403 345.1C1404.1 344 1404.8 342.5 1405.3 340.6C1405.8 338.7 1406 336.4 1406 333.7V317.8C1406 315 1405.8 312.7 1405.3 310.9C1404.8 309 1404.1 307.5 1403 306.4C1401.9 305.3 1400.5 304.5 1398.7 304.1C1396.9 303.6 1394.6 303.4 1391.9 303.4H1360.4C1357.6 303.4 1355.4 303.6 1353.6 304.1C1351.8 304.6 1350.4 305.3 1349.3 306.4C1348.2 307.5 1347.5 309 1347 310.9C1346.5 312.8 1346.3 315.1 1346.3 317.8V333.7Z" fill="#12AAFF"/>
<path d="M1464.8 288.7C1466.5 288.7 1467.9 288.8 1469 288.9C1470.1 289 1471.1 289.3 1472 289.8C1472.8 290.3 1473.7 290.9 1474.4 291.7C1475.2 292.5 1476.1 293.6 1477.1 294.9L1516.6 346.7C1516.9 347.2 1517.3 347.4 1518 347.4H1519C1519.6 347.4 1519.8 347 1519.8 346.3V291C1519.8 289.4 1520.6 288.7 1522.1 288.7H1533.2C1534.8 288.7 1535.5 289.5 1535.5 291V351.9C1535.5 356.2 1534.7 359.1 1533.2 360.7C1531.6 362.2 1529.2 363 1526 363H1516.9C1515.3 363 1513.9 362.9 1512.8 362.8C1511.7 362.7 1510.7 362.4 1509.9 362C1509.1 361.6 1508.2 361 1507.4 360.1C1506.6 359.3 1505.7 358.2 1504.6 356.8L1465 305.1C1464.6 304.6 1464.1 304.4 1463.6 304.4H1462.6C1462 304.4 1461.8 304.8 1461.8 305.5V360.9C1461.8 362.5 1461 363.2 1459.5 363.2H1448.4C1446.8 363.2 1446 362.4 1446 360.9V300C1446 295.7 1446.8 292.8 1448.3 291.2C1449.9 289.7 1452.3 288.9 1455.5 288.9H1464.8V288.7Z" fill="#12AAFF"/>
</g>
<defs>
<clipPath id="clip0_54_12">
<rect width="1920" height="488.9" fill="white"/>
</clipPath>
</defs>
</svg>
