<svg xmlns="http://www.w3.org/2000/svg" version="1.1" xmlns:xlink="http://www.w3.org/1999/xlink" width="512" height="512" x="0" y="0" viewBox="0 0 42 58" style="enable-background:new 0 0 512 512" xml:space="preserve" class=""><g><g fill="none" fill-rule="nonzero"><g fill="#bcc2c6"><path d="M14 47.59v7.6a2.809 2.809 0 0 1-5.61.21L8 50.38a5 5 0 0 1 3.1-5.01zM31.11 45.12A5.009 5.009 0 0 1 35 50.38l-.39 5.02a2.809 2.809 0 0 1-5.61-.21v-8.17zM9.05 40.15l-3.59 1.92a3.707 3.707 0 0 1-3.91-6.28l7.73-5.56c.674.379 1.372.713 2.09 1zM30.63 31.23a17.621 17.621 0 0 0 2.09-1l7.73 5.56a3.707 3.707 0 0 1-3.91 6.28l-3.59-1.92" fill="#bcc2c6" opacity="1" data-original="#bcc2c6"></path></g><path fill="#d0d3d0" d="M33 39c0 .4-.02.78-.05 1.15a9.1 9.1 0 0 1-1.84 4.97 8.316 8.316 0 0 1-2.11 1.9A14.672 14.672 0 0 1 21 49a15.777 15.777 0 0 1-7-1.41 8.738 8.738 0 0 1-2.9-2.22 9 9 0 0 1-2.05-5.22C9.02 39.78 9 39.4 9 39a13.7 13.7 0 0 1 2.37-7.77A26.127 26.127 0 0 0 21 33c3.293.022 6.56-.578 9.63-1.77A13.7 13.7 0 0 1 33 39z" opacity="1" data-original="#d0d3d0"></path><path fill="#606060" d="M26.19 32.51A7.864 7.864 0 0 1 28 37.58c0 4.19-3.13 5.42-7 5.42s-7-1.23-7-5.42a7.864 7.864 0 0 1 1.81-5.07" opacity="1" data-original="#606060"></path><path fill="#94a4a4" d="M21 44c-6.612 0-8-3.491-8-6.42a8.728 8.728 0 0 1 4.4-7.663 1 1 0 1 1 .973 1.747A6.727 6.727 0 0 0 15 37.58c0 1.9.622 4.42 6 4.42s6-2.522 6-4.42a6.786 6.786 0 0 0-2.758-5.526 1 1 0 0 1 1.168-1.624A8.791 8.791 0 0 1 29 37.58c0 2.929-1.388 6.42-8 6.42z" opacity="1" data-original="#94a4a4"></path><path fill="#ffffff" d="M19 40a1 1 0 0 1-.371-1.929l5-2a1 1 0 1 1 .742 1.858l-5 2A1.006 1.006 0 0 1 19 40z" opacity="1" data-original="#ffffff"></path><path fill="#ebeff0" d="M37 22.42V25c0 1.85-1.63 3.75-4.28 5.23-.674.379-1.372.713-2.09 1A26.127 26.127 0 0 1 21 33a26.127 26.127 0 0 1-9.63-1.77 17.621 17.621 0 0 1-2.09-1C6.63 28.75 5 26.85 5 25v-2.58C5 25.12 12.16 28 21 28s16-2.88 16-5.58zM37 16v.15c0-3.08-1.79-5.87-4.68-7.89A20.044 20.044 0 0 0 21 5C12.16 5 5 9.99 5 16.15V16C5 7.163 12.163 0 21 0s16 7.163 16 16z" opacity="1" data-original="#ebeff0" class=""></path><path fill="#2fa7cb" d="M37 16.15v6.27c0 2.7-7.16 5.58-16 5.58S5 25.12 5 22.42v-6.27C5 9.99 12.16 5 21 5a20.044 20.044 0 0 1 11.32 3.26c2.89 2.02 4.68 4.81 4.68 7.89z" opacity="1" data-original="#2fa7cb" class=""></path><circle cx="13" cy="18" r="4" fill="#65dcb8" opacity="1" data-original="#65dcb8"></circle><circle cx="29" cy="18" r="4" fill="#65dcb8" opacity="1" data-original="#65dcb8"></circle></g></g></svg>