<svg width="666" height="226" viewBox="0 0 666 226" fill="none" xmlns="http://www.w3.org/2000/svg">
<path d="M167.381 81.597C167.381 77.1432 168.239 73.2075 169.957 69.7734C171.551 66.4843 174.053 63.7219 177.167 61.8138C180.255 59.9396 183.827 59.0026 187.873 59.0026C191.77 59.0026 195.248 59.9672 198.308 61.8965C201.369 63.8257 203.758 66.5267 205.48 70.0104C207.203 73.4941 208.062 77.4684 208.062 81.9168V85.2902H178.229C178.384 87.9747 179.347 90.141 181.114 91.8056C182.886 93.4703 185.214 94.2971 188.104 94.2971C190.064 94.3154 191.997 93.8315 193.718 92.8915C195.435 91.9545 197.307 90.3394 199.332 88.0243L206.086 95.35C203.763 98.0785 201.077 100.212 198.044 101.744C194.956 103.283 191.548 104.067 188.098 104.032C183.998 104.032 180.382 103.095 177.244 101.22C174.104 99.3406 171.573 96.5917 169.957 93.3049C168.239 89.8929 167.375 85.9958 167.375 81.6026V81.5915L167.381 81.597ZM197.131 76.9282C197.053 75.8067 196.755 74.7115 196.254 73.7051C195.754 72.6988 195.06 71.8011 194.213 71.0632C192.472 69.5088 190.205 68.6753 187.873 68.7316C185.286 68.7316 183.167 69.4868 181.493 70.9861C179.826 72.4854 178.791 74.4698 178.384 76.9392H197.131V76.9282ZM241.081 70.501V87.6274C241.081 89.0716 241.395 90.1189 242.028 90.7583C242.661 91.4032 243.712 91.7229 245.176 91.7229H254.363V102.825H244.191C239.738 102.825 236.298 101.711 233.871 99.4841C231.438 97.2627 230.227 94.0822 230.227 89.959V70.501H220.358V60.2042H230.227V49.3452H241.081V60.2042H256.867V70.501H241.081ZM270.682 44.1251H281.536V64.1454H281.691C284.52 60.7169 288.395 59.0026 293.304 59.0026C296.075 58.9567 298.796 59.7398 301.12 61.2515C303.399 62.7564 305.166 64.873 306.432 67.6071C307.698 70.3356 308.331 73.5051 308.331 77.0936V102.825H297.476V78.626C297.476 75.7817 296.794 73.5548 295.429 71.9507C294.058 70.3411 292.187 69.5364 289.815 69.5364C287.228 69.5364 285.202 70.3301 283.738 71.9066C282.268 73.4886 281.536 75.6769 281.536 78.4661V102.83H270.682V44.1196V44.1251ZM319.487 81.597C319.487 77.1432 320.346 73.2075 322.069 69.7734C323.663 66.4843 326.165 63.7219 329.279 61.8138C332.362 59.9396 335.928 59.0026 339.979 59.0026C343.876 59.0026 347.355 59.9672 350.415 61.8965C353.481 63.8257 355.87 66.5267 357.593 70.0104C359.304 73.4941 360.174 77.4684 360.174 81.9168V85.2902H330.342C330.496 87.9747 331.453 90.141 333.226 91.8056C334.998 93.4703 337.326 94.2971 340.211 94.2971C342.231 94.2971 344.107 93.8341 345.825 92.8915C347.548 91.9545 349.419 90.3394 351.439 88.0243L358.198 95.35C355.973 98.0002 353.238 100.175 350.156 101.744C347.069 103.281 343.663 104.065 340.216 104.032C336.115 104.032 332.494 103.095 329.362 101.22C326.221 99.3408 323.691 96.5919 322.074 93.3049C320.352 89.8929 319.487 85.9903 319.487 81.597ZM349.243 76.9282C349.165 75.8066 348.868 74.7113 348.367 73.7049C347.867 72.6986 347.173 71.8009 346.326 71.0632C344.584 69.5088 342.317 68.6753 339.985 68.7316C337.403 68.7316 335.279 69.4868 333.606 70.9861C331.938 72.4854 330.897 74.4698 330.496 76.9392H349.243V76.9282ZM375.052 60.2042H385.449V64.1454H385.598C387.32 62.3264 389.104 61.009 390.953 60.2042C392.802 59.3994 394.911 58.9915 397.294 58.9915C400.783 58.9915 403.794 60.0829 406.321 62.2548C408.853 64.421 410.625 67.3811 411.638 71.1349L401.466 74.6737C400.31 71.19 397.899 69.4427 394.256 69.4427C391.526 69.4427 389.45 70.286 388.036 71.9783C386.616 73.665 385.906 75.9856 385.906 78.9347V102.819H375.052V60.2097V60.2042ZM420.896 81.597C420.896 77.1432 421.754 73.2075 423.471 69.7734C425.067 66.485 427.569 63.7228 430.682 61.8138C433.764 59.9396 437.336 59.0026 441.382 59.0026C445.279 59.0026 448.757 59.9672 451.823 61.8965C454.884 63.8257 457.272 66.5267 458.995 70.0104C460.712 73.4941 461.571 77.4684 461.571 81.9168V85.2902H431.75C431.898 87.9747 432.862 90.141 434.634 91.8056C436.406 93.4703 438.729 94.2971 441.619 94.2971C443.633 94.2971 445.51 93.8341 447.233 92.8915C448.95 91.9545 450.827 90.3394 452.847 88.0243L459.606 95.35C457.278 98.0785 454.597 100.212 451.559 101.744C448.472 103.282 445.066 104.066 441.619 104.032C437.518 104.032 433.902 103.095 430.764 101.22C427.625 99.3391 425.095 96.5907 423.477 93.3049C421.76 89.8929 420.896 85.9903 420.896 81.597ZM450.651 76.9282C450.573 75.8062 450.274 74.7107 449.773 73.7043C449.271 72.6979 448.576 71.8004 447.728 71.0632C445.987 69.5083 443.72 68.6747 441.387 68.7316C438.812 68.7316 436.687 69.4868 435.014 70.9861C433.34 72.4854 432.306 74.4698 431.898 76.9392H450.645L450.651 76.9282ZM473.873 88.3495V60.2042H484.716V85.6926C484.716 90.8961 487.149 93.4924 492.009 93.4924C494.189 93.4924 495.917 92.7868 497.21 91.3591C498.498 89.9425 499.148 88.0518 499.148 85.6926V60.2042H509.991V102.813H499.599V99.0321H499.445C498.333 100.537 496.803 101.739 494.855 102.654C492.945 103.559 490.858 104.026 488.745 104.021C483.984 104.021 480.318 102.643 477.737 99.8865C475.161 97.1194 473.867 93.2719 473.867 88.344L473.873 88.3495ZM521.159 60.2042H530.725V63.9029H530.879C531.732 62.4587 532.839 61.3452 534.176 60.568C535.514 59.7963 536.994 59.3994 538.618 59.3994C541.81 59.3994 544.359 60.9814 546.28 64.1399H546.434C548.454 60.9814 551.239 59.3994 554.784 59.3994C557.712 59.3994 560.095 60.5019 561.911 62.6957C563.739 64.8951 564.647 67.7614 564.647 71.2948V102.825H554.624V73.3122C554.624 72.083 554.321 71.1459 553.716 70.501C553.105 69.8561 552.246 69.5364 551.134 69.5364C550.656 69.5158 550.179 69.6021 549.739 69.7889C549.298 69.9758 548.904 70.2586 548.586 70.6168C547.958 71.3444 547.639 72.3255 547.639 73.5548V102.825H538.15V73.3122C538.15 72.1326 537.858 71.2066 537.28 70.5396C536.697 69.8781 535.877 69.5309 534.809 69.5309C534.315 69.5084 533.821 69.5939 533.363 69.7814C532.905 69.9689 532.493 70.2539 532.156 70.6168C531.496 71.3444 531.165 72.3255 531.165 73.5548V102.825H521.148V60.2042H521.159ZM179.523 160.113H168.9V149.821H179.523V143.554C179.523 139.8 180.701 136.84 183.051 134.668C185.407 132.502 188.654 131.411 192.804 131.411H204.495V141.619H194.092C193.036 141.619 192.221 141.911 191.67 142.501C191.109 143.097 190.834 143.923 190.834 144.998V149.821H206.922V160.113H190.834V187.696H179.523V160.113ZM218.079 166.386C218.079 161.992 218.943 158.09 220.666 154.689C222.279 151.402 224.791 148.642 227.91 146.729C231.025 144.827 234.575 143.874 238.577 143.874C242.622 143.874 246.205 144.827 249.315 146.729C252.435 148.642 254.948 151.402 256.564 154.689C258.287 158.09 259.146 161.992 259.146 166.386C259.146 170.784 258.281 174.676 256.564 178.088C254.949 181.374 252.435 184.132 249.315 186.042C246.205 187.944 242.622 188.897 238.577 188.897C234.575 188.897 231.025 187.944 227.91 186.042C224.79 184.131 222.277 181.373 220.661 178.088C218.943 174.676 218.079 170.779 218.079 166.386ZM248.291 166.386C248.291 162.637 247.444 159.699 245.749 157.577C244.053 155.46 241.665 154.402 238.577 154.402C235.538 154.402 233.172 155.46 231.476 157.577C229.781 159.699 228.933 162.637 228.933 166.386C228.933 170.139 229.781 173.072 231.476 175.194C233.172 177.311 235.538 178.369 238.577 178.369C241.609 178.369 243.987 177.294 245.71 175.15C247.433 173.011 248.291 170.084 248.291 166.386ZM271.057 173.215V145.081H281.911V170.569C281.911 175.767 284.338 178.369 289.198 178.369C291.372 178.369 293.106 177.658 294.4 176.236C295.688 174.819 296.332 172.929 296.332 170.564V145.075H307.186V187.69H296.788V183.914H296.634C295.43 185.485 293.852 186.728 292.044 187.53C290.134 188.435 288.047 188.902 285.934 188.897C281.179 188.897 277.513 187.519 274.926 184.758C272.35 181.996 271.057 178.143 271.057 173.215ZM321.381 145.075H332.241V149.099H332.389C334.013 147.38 335.758 146.079 337.624 145.197C339.495 144.315 341.62 143.874 344.008 143.874C346.634 143.874 349.083 144.519 351.362 145.836C353.641 147.154 355.49 149.16 356.905 151.872C358.319 154.573 359.029 157.935 359.029 161.959V187.69H348.175V163.492C348.175 160.758 347.514 158.558 346.199 156.894C344.884 155.234 342.99 154.397 340.508 154.397C337.926 154.397 335.901 155.19 334.437 156.767C332.967 158.349 332.235 160.537 332.235 163.326V187.69H321.386V145.07L321.381 145.075ZM369.355 166.386C369.355 162.097 370.142 158.239 371.711 154.81C373.279 151.376 375.475 148.697 378.316 146.762C381.155 144.833 384.517 143.825 387.948 143.874C392.505 143.874 396.072 145.158 398.653 147.732H398.802V128.996H409.651V187.696H399.633V183.997H399.485C396.501 187.266 392.604 188.903 387.799 188.903C384.255 188.903 381.084 187.966 378.277 186.092C375.47 184.212 373.268 181.572 371.705 178.171C370.136 174.77 369.349 170.839 369.349 166.391H369.355V166.386ZM398.802 169.114V163.574C398.802 161.965 398.395 160.466 397.591 159.065C396.776 157.665 395.611 156.501 394.212 155.686C392.751 154.827 391.084 154.383 389.39 154.402C386.55 154.402 384.315 155.488 382.675 157.654C381.024 159.832 380.204 162.737 380.204 166.386C380.204 169.974 381.035 172.868 382.708 175.062C384.381 177.261 386.583 178.358 389.313 178.358C392.037 178.358 394.311 177.46 396.105 175.668C397.899 173.871 398.802 171.688 398.802 169.114ZM423.394 176.28C423.394 172.311 424.671 169.224 427.225 167.031C429.779 164.837 434.05 163.227 440.017 162.207C443.154 161.673 445.295 161.066 446.429 160.399C447.574 159.732 448.136 158.828 448.136 157.698C448.145 157.089 447.996 156.488 447.704 155.954C447.412 155.419 446.986 154.97 446.468 154.65C445.361 153.895 443.837 153.52 441.916 153.52C439.742 153.52 437.854 154.215 436.258 155.615C434.661 157.009 433.643 158.856 433.186 161.16L423.086 158.751C423.593 155.852 424.732 153.278 426.504 151.023C428.286 148.765 430.576 146.961 433.186 145.759C435.918 144.487 438.898 143.842 441.91 143.868C447.073 143.868 451.196 145.395 454.289 148.443C457.371 151.508 458.913 155.582 458.913 160.669V187.685H449.203V182.944H449.049C447.888 184.818 446.253 186.274 444.151 187.321C442.059 188.368 439.692 188.886 437.056 188.886C434.425 188.886 432.069 188.357 429.999 187.288C427.986 186.275 426.301 184.712 425.139 182.779C423.967 180.813 423.362 178.559 423.394 176.269V176.28ZM448.592 171.854V167.031H448.449C447.916 167.902 447.117 168.578 446.171 168.96C445.108 169.445 443.435 169.93 441.162 170.41C438.327 171.054 436.373 171.732 435.316 172.46C434.813 172.781 434.401 173.228 434.121 173.757C433.841 174.285 433.703 174.877 433.72 175.475C433.692 176.026 433.806 176.575 434.052 177.069C434.298 177.562 434.667 177.984 435.124 178.292C436.059 178.937 437.413 179.257 439.186 179.257C440.804 179.257 442.351 178.926 443.815 178.248C445.284 177.57 446.446 176.666 447.31 175.519C448.169 174.373 448.598 173.149 448.598 171.859L448.592 171.854ZM494.59 155.372V172.499C494.59 173.943 494.904 174.99 495.543 175.63C496.17 176.28 497.216 176.6 498.691 176.6H507.877V187.69H497.706C493.247 187.69 489.807 186.577 487.386 184.355C484.958 182.128 483.742 178.953 483.742 174.825V155.367H473.873V145.081H483.742V134.222H494.596V145.081H510.382V155.378H494.601L494.59 155.372ZM562.599 177.162V187.69H523.058V177.162H537.402V155.609H523.806V145.081H548.256V177.162H562.599ZM537.17 127.067H548.333V138.4H537.17V127.067ZM573.002 166.386C573.002 161.992 573.861 158.09 575.578 154.689C577.191 151.4 579.705 148.639 582.827 146.729C585.937 144.827 589.498 143.874 593.489 143.874C597.54 143.874 601.123 144.827 604.233 146.729C607.353 148.642 609.866 151.402 611.482 154.689C613.199 158.09 614.058 161.992 614.058 166.386C614.058 170.784 613.199 174.676 611.482 178.088C609.869 181.375 607.354 184.134 604.233 186.042C601.123 187.944 597.54 188.897 593.489 188.897C589.498 188.897 585.937 187.944 582.827 186.042C579.708 184.131 577.194 181.373 575.578 178.088C573.861 174.676 573.002 170.779 573.002 166.386ZM603.209 166.386C603.209 162.637 602.361 159.699 600.661 157.577C598.965 155.46 596.576 154.402 593.489 154.402C590.456 154.402 588.089 155.46 586.394 157.577C584.699 159.699 583.851 162.637 583.851 166.386C583.851 170.139 584.693 173.072 586.394 175.194C588.089 177.311 590.456 178.369 593.489 178.369C596.527 178.369 598.905 177.294 600.622 175.15C602.345 173.006 603.209 170.084 603.209 166.386ZM625.605 145.075H636.454V149.099H636.608C638.093 147.481 639.869 146.158 641.842 145.197C643.842 144.286 646.02 143.834 648.216 143.874C650.853 143.874 653.302 144.519 655.581 145.836C657.859 147.154 659.709 149.16 661.123 151.872C662.538 154.573 663.248 157.935 663.248 161.959V187.69H652.394V163.492C652.394 160.758 651.733 158.558 650.418 156.894C649.102 155.234 647.204 154.397 644.721 154.397C642.145 154.397 640.12 155.19 638.656 156.767C637.186 158.349 636.454 160.537 636.454 163.326V187.69H625.605V145.075Z" fill="black"/>
<path d="M64.1561 167.747V221.337L2.75195 126.317L64.1561 167.747Z" fill="#18ABD3"/>
<path d="M125.566 126.317L64.1562 221.337V167.747L125.566 126.317Z" fill="#6B7ABA"/>
<path d="M125.566 112.929L64.1562 75.9692V154.364L125.566 112.929Z" fill="#A566A6"/>
<path d="M125.566 112.928L64.1562 0V75.9636L125.566 112.928Z" fill="#F08A78"/>
<path d="M64.1561 0V75.9636L2.75195 112.934L64.1561 0Z" fill="#FFEB5C"/>
<path d="M64.1561 75.9634V154.363L2.75195 112.928L64.1561 75.9634Z" fill="#58B36F"/>
</svg>
