<svg width="386" height="430" viewBox="0 0 386 430" fill="none" xmlns="http://www.w3.org/2000/svg">
<path fill-rule="evenodd" clip-rule="evenodd" d="M200.742 205.209C205.192 210.915 209.953 216.351 215.197 221.342C223.073 228.838 233.228 231.732 243.872 229.513C251.324 227.96 258.656 226.045 265.837 223.729C265.978 223.684 266.127 223.674 266.273 223.7C266.418 223.726 266.555 223.788 266.671 223.88C266.787 223.972 266.879 224.091 266.938 224.226C266.997 224.362 267.021 224.51 267.009 224.657L264.658 253.991C264.647 254.156 264.59 254.315 264.493 254.449C264.395 254.583 264.262 254.687 264.108 254.748C251.045 260.222 239.426 267.161 229.289 275.605C217.796 285.18 208.68 298.027 201.435 313.108C201.371 313.237 201.336 313.379 201.334 313.523C201.331 313.667 201.36 313.809 201.419 313.941C220.024 357.251 224.618 387.092 226.628 428.18C226.64 428.438 226.751 428.681 226.938 428.859C227.125 429.037 227.373 429.137 227.631 429.137H384.975C385.111 429.137 385.246 429.11 385.371 429.056C385.497 429.003 385.61 428.924 385.704 428.826C385.798 428.727 385.871 428.61 385.918 428.483C385.966 428.355 385.987 428.219 385.98 428.083C384.302 393.553 377.729 360.723 358.188 337.194C347.748 324.622 334.878 314.381 319.271 306.774C319.1 306.693 318.956 306.566 318.856 306.405C318.756 306.245 318.704 306.06 318.706 305.871V242.276C318.707 242.134 318.677 241.993 318.618 241.863C318.56 241.733 318.475 241.617 318.368 241.523C318.262 241.428 318.136 241.358 318 241.316C317.864 241.274 317.721 241.261 317.58 241.279C304.666 242.839 292.611 245.272 281.433 248.593C281.293 248.635 281.145 248.642 281.002 248.614C280.858 248.586 280.724 248.523 280.61 248.431C280.497 248.339 280.407 248.22 280.35 248.086C280.292 247.952 280.268 247.805 280.28 247.659L282.817 216.01C282.825 215.891 282.857 215.775 282.911 215.669C282.966 215.563 283.041 215.47 283.133 215.394C288.71 210.681 292.511 204.21 294.045 196.555C295.313 190.179 296.314 183.753 297.043 177.294C297.062 177.131 297.041 176.966 296.981 176.813C296.922 176.66 296.825 176.524 296.701 176.417C296.576 176.31 296.427 176.235 296.267 176.199C296.107 176.163 295.94 176.167 295.782 176.211C265.685 184.375 232.368 187.788 201.517 188.308C201.254 188.313 201.003 188.421 200.818 188.609C200.633 188.797 200.53 189.049 200.529 189.313V204.591C200.527 204.815 200.602 205.034 200.742 205.209ZM173.633 257.109C171.655 257.076 169.769 256.267 168.381 254.857C166.994 253.447 166.216 251.547 166.216 249.569C166.216 247.591 166.994 245.692 168.381 244.281C169.769 242.871 171.655 242.062 173.633 242.029H197.342C203.669 242.029 209.407 245.153 212.86 250.49L216.324 255.844C217.382 257.516 217.738 259.537 217.316 261.469C216.893 263.401 215.726 265.089 214.067 266.167C212.409 267.244 210.392 267.624 208.455 267.225C206.518 266.825 204.816 265.678 203.719 264.032C202.682 262.432 200.236 258.132 199.014 257.466C198.585 257.233 198.019 257.11 197.342 257.11H173.633V257.109ZM117.775 224.268L120.117 253.491C120.128 253.657 120.186 253.817 120.284 253.952C120.383 254.087 120.517 254.191 120.673 254.252C134.224 259.801 146.245 266.904 156.689 275.605C197.049 309.226 209.409 358.672 212.809 428.082C212.816 428.218 212.796 428.354 212.749 428.482C212.702 428.61 212.629 428.727 212.535 428.826C212.441 428.925 212.328 429.004 212.202 429.057C212.077 429.111 211.942 429.138 211.806 429.138H1.00488C0.868683 429.138 0.733818 429.111 0.608539 429.057C0.48326 429.004 0.370201 428.926 0.276269 428.827C0.182338 428.728 0.10951 428.612 0.0622419 428.484C0.0149743 428.356 -0.00574026 428.22 0.00136301 428.084C1.67868 393.554 8.25173 360.724 27.7927 337.196C38.2345 324.624 51.1031 314.383 66.7098 306.775C66.8808 306.694 67.025 306.567 67.1253 306.406C67.2255 306.246 67.2775 306.061 67.2751 305.872V242.277C67.2746 242.135 67.3044 241.994 67.3626 241.864C67.4208 241.734 67.5061 241.618 67.6127 241.524C67.7193 241.429 67.8448 241.359 67.9808 241.317C68.1168 241.275 68.2602 241.262 68.4015 241.28C80.8595 242.785 92.5177 245.102 103.361 248.246C103.501 248.287 103.648 248.293 103.791 248.264C103.934 248.235 104.068 248.172 104.181 248.08C104.293 247.988 104.382 247.87 104.439 247.735C104.496 247.601 104.52 247.455 104.508 247.31L101.942 215.289L102.656 215.232C97.1841 210.533 93.4526 204.124 91.9361 196.557C90.6675 190.181 89.6672 183.755 88.9378 177.296C88.9187 177.133 88.9399 176.968 88.9996 176.815C89.0594 176.662 89.1558 176.526 89.2804 176.419C89.405 176.312 89.5539 176.237 89.7142 176.201C89.8744 176.165 90.041 176.169 90.1994 176.213C120.296 184.377 153.613 187.79 184.464 188.31C184.727 188.315 184.978 188.423 185.163 188.611C185.348 188.798 185.452 189.051 185.452 189.315V204.592C185.452 205.402 181.485 209.87 180.751 210.736C177.609 214.441 174.304 217.993 170.785 221.343C162.91 228.839 152.754 231.733 142.109 229.514C134.246 227.875 126.515 225.833 118.954 223.343C118.813 223.297 118.663 223.285 118.517 223.311C118.371 223.336 118.233 223.397 118.116 223.489C117.999 223.581 117.907 223.7 117.848 223.836C117.788 223.972 117.763 224.12 117.775 224.268ZM221.783 10.7969C230.793 2.6878 241.912 -3.01281 254.314 1.71705C278.959 11.1194 288.868 81.6648 295.487 108.297C295.545 108.526 295.52 108.769 295.416 108.982C295.312 109.194 295.136 109.363 294.92 109.458C239.502 133.948 146.484 133.948 91.0636 109.459C90.8461 109.364 90.6696 109.195 90.5658 108.981C90.462 108.767 90.4378 108.524 90.4974 108.294C97.2394 81.6607 113.081 11.1204 137.726 1.71807C150.128 -3.01179 161.248 2.68882 170.257 10.7979C177.316 17.1885 186.498 20.7275 196.02 20.7273C205.542 20.7271 214.725 17.1878 221.783 10.7969ZM306.476 80.9531C306.308 80.8946 306.127 80.8819 305.953 80.9164C305.778 80.9509 305.615 81.0312 305.482 81.1492C305.348 81.2672 305.249 81.4187 305.193 81.5879C305.138 81.7572 305.128 81.9382 305.166 82.1123C306.807 89.8527 308.358 97.7529 310.305 105.389L313.229 116.858C313.289 117.087 313.265 117.33 313.162 117.544C313.059 117.757 312.883 117.927 312.666 118.023L301.868 122.87C242.328 149.597 143.655 149.597 84.1138 122.87L73.3157 118.023C73.0989 117.927 72.9233 117.757 72.8203 117.544C72.7173 117.33 72.6936 117.087 72.7535 116.858L75.677 105.389C77.6226 97.7539 79.176 89.8517 80.8175 82.1123C80.855 81.9382 80.8455 81.7572 80.7899 81.5879C80.7344 81.4187 80.6347 81.2672 80.5013 81.1492C80.3678 81.0312 80.2054 80.9509 80.0306 80.9164C79.8558 80.8819 79.675 80.8946 79.5068 80.9531C51.0539 90.7487 33.4831 104.207 33.4831 119.063C33.4831 149.019 104.898 173.303 192.993 173.303C281.087 173.303 352.502 149.019 352.502 119.063C352.5 104.207 334.928 90.7487 306.476 80.9531Z" fill="black"/>
</svg>